<?xml version="1.0" standalone="no"?>
<!DOCTYPE svg PUBLIC "-//W3C//DTD SVG 20010904//EN"
 "http://www.w3.org/TR/2001/REC-SVG-20010904/DTD/svg10.dtd">
<svg version="1.0" xmlns="http://www.w3.org/2000/svg"
 width="300.000000pt" height="300.000000pt" viewBox="0 0 300.000000 300.000000"
 preserveAspectRatio="xMidYMid meet">
<metadata>
Created by potrace 1.11, written by Peter Selinger 2001-2013
</metadata>
<g transform="translate(0.000000,300.000000) scale(0.100000,-0.100000)"
fill="#000000" stroke="none">
<path d="M1385 2964 c-87 -8 -193 -27 -262 -45 -506 -134 -909 -537 -1042
-1042 -34 -129 -45 -219 -45 -377 0 -294 66 -529 216 -773 220 -359 588 -604
1018 -678 97 -16 363 -16 460 0 369 63 674 240 911 528 159 192 265 429 310
693 16 97 16 363 0 460 -108 628 -574 1103 -1194 1215 -81 15 -301 26 -372 19z
m231 -85 c345 -34 620 -163 860 -403 241 -241 369 -515 403 -864 18 -173 -10
-394 -71 -567 -119 -339 -389 -641 -712 -794 -225 -106 -478 -153 -709 -130
-348 34 -622 162 -863 403 -420 420 -527 1035 -273 1572 66 139 153 260 273
380 236 236 518 369 851 403 116 12 121 12 241 0z"/>
<path d="M584 2007 c-3 -8 -3 -56 -2 -108 l3 -94 53 -3 52 -3 0 -314 0 -314
-52 -3 -53 -3 0 -105 0 -105 225 0 225 0 0 105 0 105 -42 3 -43 3 0 96 0 95
74 -4 c63 -3 79 -7 101 -28 15 -14 31 -36 37 -50 8 -22 58 -296 58 -321 0 -5
69 -9 159 -9 122 0 161 3 170 14 8 9 9 45 5 114 l-7 101 -41 3 c-45 3 -40 -5
-81 140 -9 34 -29 73 -48 95 -23 26 -28 38 -18 41 29 10 90 74 109 115 82 176
-11 376 -202 431 -74 22 -674 24 -682 3z m570 -221 c43 -18 66 -51 66 -97 0
-76 -59 -109 -194 -109 l-76 0 0 110 0 110 85 0 c51 0 99 -6 119 -14z"/>
<path d="M1674 2007 c-3 -8 -3 -56 -2 -108 l3 -94 48 -3 47 -3 0 -314 0 -314
-47 -3 -48 -3 0 -105 0 -105 225 0 225 0 0 105 0 105 -48 3 -48 3 3 82 3 82
130 5 c104 5 140 10 178 28 79 36 123 77 159 150 28 57 34 79 36 154 4 76 1
94 -21 141 -44 96 -128 163 -242 193 -72 20 -593 20 -601 1z m543 -233 c15
-12 34 -38 42 -59 13 -32 13 -43 0 -78 -20 -57 -58 -77 -151 -80 l-73 -2 -3
124 -3 123 80 -3 c61 -3 86 -9 108 -25z"/>
</g>
</svg>
